<?xml version="1.0" encoding="UTF-8" standalone="no"?>
<svg xmlns="http://www.w3.org/2000/svg"
     version="1.1"
     width="3000" height="2723"
     viewBox="0 0 3000 2723">

  <defs>
    <!-- Knockout mask for the white hexagon so sprout leaves have a clean outline gap -->
    <mask id="hex-cutout">
      <rect x="0" y="0" width="3000" height="2723" fill="#ffffff"/>
      <path d="M 1460.0,440.0 C 1395.0,425.0 1285.0,405.0 1225.0,390.0 C 1212.0,388.0 1200.0,396.0 1210.0,405.0 C 1280.0,465.0 1400.0,495.0 1460.0,480.0 Z M 1532.0,440.0 C 1597.0,425.0 1707.0,405.0 1767.0,390.0 C 1780.0,388.0 1792.0,396.0 1782.0,405.0 C 1712.0,465.0 1592.0,495.0 1532.0,480.0 Z" fill="none" stroke="#000000" stroke-width="32" stroke-linejoin="round" stroke-linecap="round"/>
    </mask>
  </defs>

  <rect width="3000" height="2723" fill="#0C120F"/>

  <!-- Emblem: Pure flat vector fills (shifted +4.4px so center X is exactly 1500.0) -->
  <g id="emblem" transform="translate(4.4, 0)">
    <!-- Gear on the left (Deep Emerald Sage) -->
    <path d="M859.00,1314.82 C847.42,1312.94 839.42,1310.85 837.44,1309.20 C833.02,1305.52 827.19,1288.82 825.50,1275.00 C824.38,1265.86 821.92,1254.76 820.30,1251.54 C818.36,1247.67 813.01,1242.00 811.30,1242.00 C810.59,1242.00 810.00,1241.61 810.00,1241.13 C810.00,1240.26 795.55,1233.42 770.00,1222.19 L756.51,1216.25 L751.00,1219.79 C704.15,1249.88 698.92,1252.09 688.22,1246.34 C680.59,1242.23 667.05,1230.71 649.06,1213.00 C634.81,1198.98 613.00,1174.12 613.00,1171.90 C613.00,1171.41 621.80,1157.66 632.56,1141.34 L652.12,1111.68 L642.45,1089.83 C637.13,1077.81 632.37,1067.73 631.87,1067.42 C631.38,1067.11 630.36,1065.41 629.62,1063.64 C628.88,1061.86 625.75,1057.68 622.67,1054.36 C614.10,1045.10 603.03,1041.07 586.00,1040.98 C567.18,1040.89 559.28,1033.68 555.27,1012.93 C552.86,1000.44 552.94,949.83 555.40,938.50 C556.35,934.10 557.24,929.90 557.38,929.16 C558.03,925.82 563.67,920.57 569.40,918.00 C577.42,914.38 584.06,912.54 598.00,910.04 C624.02,905.38 624.48,904.89 643.39,861.92 C652.07,842.19 652.83,840.00 651.00,840.00 C650.45,840.00 650.00,839.55 650.00,838.99 C650.00,838.43 646.93,833.82 643.19,828.74 C626.97,806.75 618.00,791.22 618.00,785.17 C618.00,778.29 626.83,765.52 645.79,744.99 C655.51,734.47 657.88,732.23 680.83,711.86 C690.93,702.89 693.55,701.04 695.33,701.59 C696.52,701.96 697.73,702.57 698.00,702.93 C698.27,703.29 710.98,711.36 726.24,720.85 L753.99,738.10 L778.74,727.46 C805.48,715.97 808.76,714.30 813.84,709.59 C817.02,706.65 821.75,699.00 820.40,699.00 C820.04,699.00 820.21,698.44 820.77,697.75 C821.63,696.70 823.63,688.12 825.38,678.00 C828.94,657.40 835.89,645.48 846.19,642.27 C853.36,640.03 853.85,639.97 873.16,638.80 C890.26,637.77 925.18,638.70 932.50,640.39 C949.14,644.22 954.50,652.07 959.95,680.59 C964.41,703.88 967.35,708.58 982.12,716.08 C990.98,720.57 1031.18,738.00 1032.68,738.00 C1033.77,738.00 1061.72,720.55 1063.00,719.08 C1063.84,718.11 1071.11,714.07 1079.00,710.19 C1085.66,706.91 1087.34,706.50 1094.00,706.53 C1101.78,706.56 1104.19,707.58 1112.00,714.10 C1116.61,717.95 1138.15,739.43 1144.58,746.58 L1150.95,753.67 L1141.57,777.08 C1126.26,815.34 1119.59,836.29 1110.95,873.24 C1108.22,884.93 1105.26,896.98 1104.38,900.00 C1103.50,903.02 1102.67,905.95 1102.54,906.50 C1101.25,912.02 1095.57,918.00 1091.59,918.00 C1088.18,918.00 1080.95,912.73 1076.69,907.13 C1074.59,904.37 1069.92,896.81 1066.30,890.31 C1059.03,877.26 1052.28,866.68 1050.90,866.17 C1050.40,865.98 1050.00,865.37 1050.00,864.81 C1050.00,861.87 1030.00,839.94 1017.78,829.47 C987.47,803.49 958.48,790.43 921.00,785.85 C906.57,784.09 865.56,784.10 856.50,785.87 C830.68,790.90 801.17,804.52 777.50,822.31 C762.14,833.86 736.32,861.79 729.00,874.78 C728.17,876.24 726.97,878.01 726.33,878.71 C723.54,881.74 711.68,906.79 708.43,916.51 C702.84,933.21 701.79,944.47 702.37,981.81 C702.64,999.24 703.36,1015.98 703.98,1019.00 C704.60,1022.02 705.33,1025.85 705.60,1027.50 C706.25,1031.39 708.77,1040.32 710.19,1043.79 C710.81,1045.28 711.43,1047.10 711.58,1047.84 C712.50,1052.41 724.09,1073.33 731.15,1083.19 C751.13,1111.08 773.38,1131.52 800.15,1146.57 C805.46,1149.56 810.10,1152.00 810.46,1152.00 C810.83,1152.00 813.46,1153.10 816.31,1154.43 C823.94,1158.01 832.00,1161.06 832.00,1160.36 C832.00,1160.03 832.56,1160.21 833.25,1160.77 C835.12,1162.30 854.14,1166.81 865.50,1168.42 C896.83,1172.86 930.25,1170.16 958.15,1160.94 C966.89,1158.05 989.79,1147.77 990.97,1146.20 C991.26,1145.82 993.08,1144.70 995.01,1143.72 C1001.37,1140.50 1015.79,1129.21 1025.59,1119.78 C1037.42,1108.39 1048.99,1094.18 1058.79,1079.00 C1074.80,1054.18 1080.72,1046.94 1087.50,1043.86 C1092.81,1041.45 1103.28,1041.39 1107.98,1043.75 C1112.50,1046.02 1115.01,1050.61 1120.12,1066.00 C1122.40,1072.88 1124.83,1079.62 1125.53,1081.00 C1126.22,1082.38 1128.05,1086.63 1129.60,1090.46 C1134.12,1101.68 1147.72,1128.74 1161.41,1153.77 L1174.14,1177.04 L1158.58,1193.34 C1150.03,1202.30 1137.06,1215.09 1129.76,1221.77 C1094.28,1254.24 1090.66,1255.12 1064.66,1237.62 C1059.24,1233.98 1054.44,1231.00 1053.99,1231.00 C1053.54,1231.00 1053.02,1230.63 1052.83,1230.18 C1052.65,1229.73 1048.37,1226.51 1043.31,1223.03 L1034.13,1216.69 L1024.31,1220.45 C1018.92,1222.52 1013.38,1224.69 1012.00,1225.26 C1010.62,1225.84 1009.05,1226.42 1008.50,1226.56 C1005.03,1227.44 987.84,1234.63 981.96,1237.66 C972.71,1242.43 967.52,1248.89 965.60,1258.00 C965.31,1259.38 964.20,1263.77 963.13,1267.77 C962.06,1271.77 961.19,1275.15 961.20,1275.27 C961.21,1275.40 960.67,1277.52 960.00,1280.00 C959.34,1282.47 958.64,1285.17 958.47,1286.00 C957.92,1288.54 954.40,1298.21 951.99,1303.80 C949.17,1310.36 947.03,1311.55 934.25,1313.66 C923.06,1315.51 868.40,1316.35 859.00,1314.82 Z" fill="#336952"/>

    <!-- White Hexagon Frame with knockout mask for sprout leaves -->
    <path d="M1475.09,1649.95 C1465.59,1648.76 1448.80,1644.71 1443.00,1642.21 C1437.93,1640.03 1115.79,1451.78 1040.62,1407.08 C978.93,1370.39 956.46,1355.46 952.88,1348.78 C951.47,1346.14 952.67,1345.11 961.15,1341.60 C973.67,1336.44 978.34,1330.72 984.96,1312.47 C987.11,1306.57 989.28,1301.32 989.80,1300.80 C991.92,1298.68 1021.32,1315.32 1221.50,1431.99 C1394.13,1532.60 1428.85,1552.35 1464.08,1569.93 C1484.76,1580.25 1494.26,1584.00 1499.71,1584.00 C1501.75,1584.00 1507.38,1581.83 1514.27,1578.38 C1572.62,1549.16 1955.19,1327.75 2040.50,1273.83 C2062.09,1260.18 2069.55,1250.55 2074.39,1230.05 C2075.72,1224.45 2077.04,1219.62 2077.34,1219.33 C2078.65,1218.02 2124.54,1240.78 2129.67,1245.28 C2139.14,1253.60 2137.78,1263.06 2123.69,1286.81 C2107.63,1313.89 2091.48,1325.36 1962.50,1401.21 C1928.37,1421.28 1777.08,1509.46 1602.89,1610.80 C1577.26,1625.71 1554.53,1638.56 1552.39,1639.36 C1529.39,1647.93 1519.06,1650.05 1498.00,1650.53 C1489.47,1650.72 1479.17,1650.46 1475.09,1649.95 Z M2075.71,668.82 C2075.13,588.77 2073.97,575.79 2065.99,559.98 C2062.01,552.09 2059.21,549.05 2048.67,541.15 C2025.23,523.58 1991.18,503.17 1765.00,371.06 C1699.83,332.99 1644.87,300.79 1642.89,299.50 C1640.03,297.64 1636.61,292.51 1626.46,274.83 C1619.41,262.55 1605.09,237.88 1594.65,220.00 C1570.75,179.09 1570.45,178.55 1571.57,179.21 C1572.08,179.51 1577.90,182.80 1584.50,186.52 C1604.31,197.69 1655.12,227.18 1758.50,287.53 C1812.40,318.99 1892.60,365.70 1936.72,391.33 C2033.14,447.34 2070.48,470.39 2095.00,489.03 C2118.68,507.03 2132.31,529.18 2139.33,561.04 C2144.58,584.89 2145.98,605.97 2145.99,661.54 L2146.00,704.59 L2112.75,719.24 C2094.46,727.30 2078.76,734.17 2077.85,734.52 C2076.32,735.09 2076.15,729.99 2075.71,668.82 Z M863.00,607.03 C848.11,606.11 846.00,604.57 846.00,594.62 C846.00,582.25 854.45,548.24 860.98,534.30 C869.92,515.21 885.15,499.55 912.00,481.79 C981.10,436.11 1213.75,298.13 1381.50,203.35 C1413.52,185.26 1418.00,182.82 1418.00,183.48 C1418.00,184.75 1410.20,199.46 1401.01,215.50 C1386.52,240.81 1352.98,297.33 1351.65,298.67 C1351.02,299.31 1307.08,325.14 1254.00,356.06 C1073.93,460.96 1008.08,500.25 955.00,534.47 C935.28,547.18 931.61,550.31 927.70,557.75 C922.72,567.23 919.43,577.64 917.02,591.54 C915.88,598.12 914.73,604.51 914.46,605.75 C913.96,608.00 913.96,608.00 893.73,607.84 C882.60,607.75 868.77,607.39 863.00,607.03 Z M1451.00,571.50 C1456.20,566.27 1460.69,562.00 1460.96,562.00 C1461.24,562.00 1457.20,566.27 1452.00,571.50 C1446.80,576.73 1442.31,581.00 1442.04,581.00 C1441.76,581.00 1445.80,576.73 1451.00,571.50 Z" fill="#ffffff" mask="url(#hex-cutout)"/>

    <!-- Git-tree on the right (Pale Sprout Pistachio) -->
    <path d="M2283.88,1261.99 C2274.85,1260.90 2263.79,1257.65 2258.44,1254.52 C2251.81,1250.63 2243.67,1242.58 2236.18,1232.50 C2230.58,1224.96 2228.56,1223.03 2223.70,1220.60 C2217.99,1217.75 2217.52,1217.69 2194.90,1216.89 C2168.96,1215.98 2159.78,1214.96 2145.72,1211.45 C2119.18,1204.82 2096.13,1192.06 2078.08,1174.01 C2063.30,1159.23 2049.73,1138.16 2026.53,1094.00 C2014.31,1070.76 2005.42,1055.04 1999.94,1047.00 C1985.21,1025.42 1955.06,1010.68 1910.24,1003.12 C1900.19,1001.42 1890.64,999.35 1889.02,998.51 C1883.87,995.85 1883.50,994.18 1883.50,973.57 L1883.50,954.64 L1902.50,952.28 C1957.09,945.49 1986.28,928.88 2008.86,891.77 C2011.11,888.07 2018.65,874.34 2025.60,861.27 C2051.27,813.02 2064.60,793.10 2083.99,774.00 C2111.04,747.36 2140.56,737.05 2190.00,736.98 C2217.93,736.94 2222.48,735.27 2233.30,721.04 C2245.00,705.65 2257.57,697.22 2275.00,693.05 C2312.76,684.01 2351.68,704.48 2360.68,738.12 C2363.21,747.55 2362.92,766.99 2360.10,777.50 C2354.42,798.69 2342.63,813.60 2324.50,822.52 C2300.83,834.18 2274.27,831.77 2250.39,815.80 C2241.36,809.76 2234.77,802.38 2231.88,795.06 C2227.26,783.37 2223.67,782.24 2196.60,783.93 C2164.70,785.93 2147.61,789.45 2133.05,797.04 C2114.19,806.87 2102.79,820.85 2081.75,860.00 C2068.26,885.11 2057.88,903.14 2047.23,920.00 C2031.77,944.45 2028.63,950.03 2029.70,951.10 C2032.12,953.52 2210.16,955.00 2261.00,953.02 C2295.41,951.68 2299.72,950.52 2305.49,941.01 C2311.01,931.92 2321.41,922.81 2332.24,917.58 C2345.07,911.37 2354.24,909.00 2368.08,908.30 C2388.87,907.26 2403.29,912.36 2416.33,925.38 C2426.92,935.97 2433.42,948.09 2436.67,963.32 C2438.90,973.80 2437.98,990.19 2434.62,999.83 C2428.78,1016.58 2416.68,1030.21 2400.48,1038.31 C2390.15,1043.48 2383.74,1045.11 2371.40,1045.72 C2353.69,1046.59 2339.51,1042.53 2325.60,1032.61 C2317.69,1026.96 2313.63,1022.43 2305.36,1010.01 L2298.69,1000.00 L2207.10,1000.02 C2094.68,1000.04 2032.84,1001.76 2029.66,1004.94 C2028.08,1006.52 2030.23,1010.41 2036.03,1016.48 C2044.57,1025.43 2058.67,1048.42 2072.35,1075.68 C2083.78,1098.48 2103.21,1129.46 2112.69,1140.00 C2129.84,1159.07 2161.57,1169.98 2200.40,1170.15 C2223.16,1170.24 2226.17,1168.91 2235.44,1154.57 C2248.52,1134.34 2266.99,1124.67 2292.50,1124.69 C2320.14,1124.71 2343.47,1137.90 2354.36,1159.66 C2359.21,1169.35 2361.17,1178.40 2361.70,1193.50 C2362.44,1214.75 2359.29,1226.56 2349.90,1237.74 C2335.47,1254.94 2308.26,1264.93 2283.88,1261.99 Z M2303.17,1220.60 C2311.92,1217.51 2315.05,1215.17 2318.24,1209.29 C2323.90,1198.91 2323.74,1183.71 2317.89,1174.48 C2308.72,1160.03 2277.58,1160.94 2269.17,1175.92 C2261.21,1190.08 2262.03,1202.38 2271.64,1213.02 C2280.50,1222.83 2290.23,1225.17 2303.17,1220.60 Z M2380.78,1003.04 C2387.27,1000.20 2394.21,992.77 2396.41,986.32 C2397.28,983.75 2398.00,979.10 2398.00,976.00 C2398.00,956.54 2381.85,944.16 2361.47,948.01 C2347.08,950.72 2339.78,959.85 2339.66,975.28 C2339.54,990.35 2344.87,1000.94 2354.31,1004.42 C2360.54,1006.71 2373.98,1006.01 2380.78,1003.04 Z M2309.65,786.47 C2318.03,782.37 2322.25,773.38 2322.30,759.50 C2322.38,740.60 2312.30,730.74 2292.93,730.74 C2278.21,730.74 2267.83,737.09 2264.57,748.09 C2262.70,754.36 2262.63,757.16 2264.13,764.17 C2266.58,775.59 2270.95,782.36 2278.34,786.16 C2287.24,790.74 2300.66,790.87 2309.65,786.47 Z" fill="#B0F6C0"/>

    <!-- 100% UNIFIED Helm Wheel, Gear Trace, Upward Shoot & Symmetrical Sprout Leaves (Seafoam Mint) -->
    <!-- ZERO overlap with the up-arrow, ZERO slits, ZERO shadows, clean botanical geometry -->
    <path d="M1271.17,1384.85 C1265.21,1381.91 1257.76,1374.40 1254.36,1367.91 C1251.86,1363.16 1251.52,1361.47 1251.57,1354.00 C1251.67,1340.43 1256.50,1330.83 1276.49,1304.50 C1282.64,1296.40 1289.09,1286.56 1291.78,1281.15 C1296.05,1272.60 1296.44,1271.19 1296.41,1264.65 C1296.35,1251.51 1290.41,1243.61 1266.00,1224.14 C1227.55,1193.47 1196.46,1154.99 1173.18,1109.25 C1161.17,1085.65 1154.12,1067.02 1144.07,1032.31 L1138.33,1012.50 L1112.91,1012.54 C1087.63,1012.59 1085.67,1012.78 1072.24,1016.60 L1067.47,1018.42 C1061.96,1019.80 1048.05,1036.27 1035.91,1055.80 C1026.96,1070.19 1020.94,1078.03 1010.51,1088.89 C985.61,1114.83 953.03,1132.23 919.51,1137.49 C909.64,1139.04 892.09,1140.00 885.00,1139.37 C839.99,1135.42 793.94,1113.02 769.79,1083.31 C752.07,1061.53 742.37,1040.61 737.38,1013.50 C734.70,998.93 734.67,952.37 737.33,940.00 C739.91,927.97 742.39,921.03 748.42,908.93 C765.93,873.80 796.48,842.97 829.01,827.62 C846.43,819.40 861.28,817.00 894.74,817.00 C932.75,817.00 945.72,820.15 971.80,835.70 C993.43,848.60 1013.12,865.74 1023.99,881.14 C1029.34,888.71 1040.73,910.47 1042.99,917.42 C1044.13,920.93 1044.08,921.47 1042.44,922.67 C1041.44,923.40 1038.99,924.00 1037.01,924.00 C1031.91,924.00 1020.42,929.88 1001.01,942.42 C985.76,952.26 984.42,952.93 983.20,951.28 C982.47,950.30 979.35,945.00 976.26,939.50 C966.04,921.27 957.63,911.27 945.67,903.10 C939.11,898.62 925.89,892.60 918.00,890.50 C909.59,888.27 888.70,887.43 878.97,888.93 C861.65,891.61 845.94,899.32 833.26,911.36 C820.90,923.10 813.62,934.73 809.79,948.85 C806.86,959.65 806.61,991.57 809.35,1003.50 C814.97,1027.89 829.42,1043.75 859.50,1058.55 C879.02,1068.16 890.15,1070.81 903.25,1068.98 C931.28,1065.06 961.48,1043.89 975.62,1018.25 C990.76,990.81 1011.86,970.00 1037.50,957.23 C1045.35,953.32 1060.33,947.83 1066.75,946.51 L1078.00,944.30 C1082.12,943.61 1092.97,942.63 1102.10,942.11 C1115.67,941.34 1119.76,940.75 1124.56,938.84 L1130.42,936.50 L1132.69,929.25 C1133.94,925.26 1137.00,911.53 1139.51,898.75 C1150.09,844.71 1155.64,827.29 1176.70,782.11 C1190.28,752.98 1193.33,743.96 1192.81,734.56 C1192.04,720.75 1187.03,715.23 1156.80,694.87 C1123.02,672.11 1111.67,659.58 1111.67,645.04 C1111.67,637.85 1115.37,629.64 1120.74,624.92 C1131.07,615.86 1147.02,612.89 1156.28,618.32 C1163.26,622.41 1176.08,635.02 1190.06,651.55 C1210.48,675.67 1218.81,682.24 1230.82,683.67 C1240.94,684.86 1254.08,678.82 1276.19,662.79 C1299.87,645.62 1319.19,633.92 1343.50,622.03 C1367.94,610.07 1381.15,605.06 1403.00,599.45 C1417.83,595.64 1429.56,590.51 1437.97,584.14 L1443.45,580.00  C 1450.0,575.0 1460.0,565.0 1460.0,530.0 L 1460.0,480.0 C 1400.0,495.0 1280.0,465.0 1210.0,405.0 C 1200.0,396.0 1212.0,388.0 1225.0,390.0 C 1285.0,405.0 1395.0,425.0 1460.0,440.0 L 1460.0,366.0 C 1455.44,364.11 1440.52,367.33 1401.5,378.52 C 1377.04,385.53 1356.24,390.57 1355.37,389.7 C 1353.0,387.33 1376.22,343.77 1421.06,266.46 C 1435.98,240.73 1456.49,205.08 1466.65,187.22 C 1484.57,155.72 1493.13,141.65 1496.0,139.55 C 1498.0,141.65 1518.35,176.0 1556.93,240.48 C 1588.0,292.0 1627.81,363.92 1639.43,386.86 C 1641.0,389.5 1640.0,390.5 1638.0,390.5 C 1634.0,390.5 1610.52,384.13 1588.5,377.97 C 1563.12,369.71 1556.4,368.0 1549.35,368.0 C 1541.62,368.0 1536.0,372.0 1532.0,380.0 L 1532.0,440.0 C 1597.0,425.0 1707.0,405.0 1767.0,390.0 C 1780.0,388.0 1792.0,396.0 1782.0,405.0 C 1712.0,465.0 1592.0,495.0 1532.0,480.0 L 1532.0,530.0 C 1532.0,565.0 1542.0,575.0 1548.0,582.0 C 1551.0,585.5 1553.5,588.5 1556.08,591.0 C1549.90,593.14 1551.94,591.00 1556.08,591.00 C1564.44,591.00 1598.59,600.17 1619.40,608.00 C1653.66,620.89 1681.79,636.54 1716.76,662.17 C1740.37,679.46 1748.87,684.13 1757.89,684.72 C1764.04,685.13 1764.86,684.93 1769.69,681.83 C1778.01,676.49 1791.00,664.68 1801.63,652.79 C1814.13,638.81 1830.00,623.67 1835.59,620.39 C1845.96,614.32 1858.11,616.90 1868.55,627.41 C1885.10,644.07 1882.60,659.10 1860.28,677.05 C1856.20,680.33 1846.26,687.48 1838.19,692.94 C1822.43,703.60 1811.64,712.59 1805.06,720.54 C1795.06,732.62 1796.82,741.34 1818.49,787.00 C1847.18,847.47 1859.31,901.48 1857.69,961.50 C1855.56,1040.49 1830.78,1106.65 1779.11,1171.29 C1764.96,1188.98 1744.37,1209.95 1728.50,1222.83 C1712.32,1235.95 1700.23,1248.12 1697.13,1254.40 C1695.23,1258.25 1694.88,1260.13 1695.39,1263.81 C1696.31,1270.55 1704.59,1286.19 1717.50,1305.59 C1730.13,1324.56 1737.06,1337.26 1740.05,1346.91 C1741.92,1352.95 1741.94,1353.67 1740.48,1359.39 C1737.66,1370.38 1730.00,1379.92 1720.68,1384.03 C1715.23,1386.43 1711.26,1386.16 1702.08,1382.75 C1691.19,1378.69 1684.63,1369.96 1674.49,1346.00 C1662.26,1317.10 1655.33,1303.27 1648.63,1294.33 C1640.57,1283.59 1632.47,1283.55 1589.00,1294.01 C1577.72,1296.73 1563.78,1299.66 1558.00,1300.53 C1540.88,1303.11 1515.97,1303.98 1488.19,1302.95 C1439.68,1301.16 1410.89,1297.35 1385.81,1289.40 C1378.41,1287.06 1371.67,1285.63 1366.29,1285.27 C1358.77,1284.77 1357.62,1284.95 1352.47,1287.47 C1343.00,1292.10 1334.43,1305.51 1324.00,1332.00 C1314.65,1355.73 1303.38,1374.69 1294.68,1381.30 C1286.68,1387.39 1278.72,1388.59 1271.17,1384.85 Z M1504.00,1232.00 C1548.50,1229.57 1579.71,1223.71 1592.25,1215.44 C1594.33,1214.08 1596.00,1212.15 1596.00,1211.13 C1596.00,1208.52 1575.05,1167.04 1554.77,1129.50 L1537.48,1097.50 L1496.49,1097.28 L1455.50,1097.05 L1436.50,1131.71 C1415.26,1170.46 1396.00,1208.19 1396.00,1211.06 C1396.00,1214.95 1408.59,1220.38 1429.33,1225.44 C1459.27,1232.74 1471.26,1233.80 1504.00,1232.00 Z M1336.03,1171.75 C1339.38,1166.11 1353.35,1138.89 1367.09,1111.25 L1392.06,1061.01 L1377.78,1039.07 C1369.93,1027.00 1361.79,1014.36 1359.70,1010.98 C1353.79,1001.45 1351.09,1000.56 1328.50,1000.75 C1318.60,1000.84 1288.93,1002.28 1262.56,1003.95 C1236.20,1005.63 1214.32,1007.00 1213.95,1007.00 C1212.95,1007.00 1218.43,1029.30 1221.55,1038.00 C1230.67,1063.32 1247.91,1093.95 1268.83,1122.00 C1281.60,1139.11 1324.26,1182.00 1328.50,1182.00 C1329.30,1182.00 1332.69,1177.39 1336.03,1171.75 Z M1675.42,1174.26 C1681.76,1171.02 1711.07,1140.69 1722.92,1125.09 C1742.61,1099.19 1760.70,1066.70 1769.83,1040.81 C1772.80,1032.41 1778.64,1008.28 1777.88,1007.57 C1776.64,1006.41 1688.20,1001.61 1667.00,1001.56 C1638.27,1001.49 1638.03,1001.56 1632.16,1011.09 C1630.15,1014.37 1622.51,1026.31 1615.19,1037.64 L1601.87,1058.23 L1603.35,1061.86 C1606.92,1070.65 1646.17,1152.70 1650.03,1159.45 C1659.59,1176.14 1665.27,1179.46 1675.42,1174.26 Z M1509.03,1045.96 C1521.36,1044.45 1535.01,1040.58 1544.70,1035.85 C1574.00,1021.53 1600.01,973.46 1595.19,942.51 C1590.47,912.12 1566.19,874.93 1543.50,863.34 C1528.29,855.56 1519.49,853.84 1495.03,853.87 C1467.91,853.90 1458.60,856.64 1439.57,870.18 C1423.67,881.49 1412.33,896.04 1404.77,914.83 C1396.50,935.38 1395.39,945.36 1399.41,963.00 C1406.94,995.98 1420.91,1016.37 1448.48,1034.59 C1464.39,1045.11 1484.75,1048.94 1509.03,1045.96 Z M1779.47,934.63 C1780.96,933.13 1782.11,930.45 1782.57,927.38 C1783.51,921.18 1781.72,904.08 1778.45,888.00 C1771.21,852.35 1745.09,793.00 1736.65,793.00 C1733.88,793.00 1716.94,805.74 1702.00,819.05 C1681.65,837.18 1631.00,885.28 1631.00,886.48 C1631.00,888.18 1640.71,909.58 1643.45,913.92 C1646.11,918.13 1649.32,920.50 1655.20,922.57 C1660.77,924.54 1666.26,925.33 1706.50,930.00 C1725.75,932.24 1745.55,934.67 1750.50,935.40 C1755.45,936.14 1763.46,936.80 1768.30,936.87 C1776.31,936.99 1777.30,936.79 1779.47,934.63 Z M1238.19,934.52 C1260.19,932.58 1320.75,926.18 1329.00,924.93 C1339.38,923.35 1345.35,921.28 1348.22,918.29 C1353.57,912.70 1359.64,894.73 1358.48,887.91 C1358.10,885.63 1356.03,881.56 1353.58,878.24 C1345.42,867.21 1295.58,820.78 1262.28,793.19 L1257.07,788.87 L1252.36,796.19 C1231.46,828.65 1212.28,883.77 1209.09,920.53 C1208.51,927.21 1208.50,932.07 1209.07,933.13 C1210.75,936.26 1215.71,936.50 1238.19,934.52 Z M1588.50,818.18 C1611.71,802.20 1674.55,751.54 1685.90,739.66 C1689.21,736.19 1689.25,736.04 1687.63,733.56 C1684.98,729.51 1673.67,720.58 1657.99,710.15 C1633.84,694.09 1611.74,683.09 1585.41,674.01 C1571.84,669.33 1543.20,662.00 1538.48,662.00 C1534.35,662.00 1532.28,663.96 1531.39,668.76 C1529.71,677.68 1533.54,756.64 1536.99,784.41 C1539.28,802.81 1542.62,808.00 1556.69,814.99 C1569.49,821.35 1578.28,824.94 1579.46,824.27 C1580.03,823.95 1584.10,821.21 1588.50,818.18 Z M1403.50,818.18 C1380.29,802.20 1317.45,751.54 1306.10,739.66 C1302.79,736.19 1302.75,736.04 1304.37,733.56 C1307.02,729.51 1318.33,720.58 1334.01,710.15 C1358.16,694.09 1380.26,683.09 1406.59,674.01 C1420.16,669.33 1448.80,662.00 1453.52,662.00 C1457.65,662.00 1459.72,663.96 1460.61,668.76 C1462.29,677.68 1458.46,756.64 1455.01,784.41 C1452.72,802.81 1449.38,808.00 1435.31,814.99 C1422.51,821.35 1413.72,824.94 1412.54,824.27 C1411.97,823.95 1407.90,821.21 1403.50,818.18 Z" fill="#5CE0B4" fill-rule="evenodd"/>
  </g>

  <!-- Typography: Pure flat fills with tight, balanced optical kerning -->
  <g id="typography">
    <!-- 'kr' in Pure White on common baseline -->
    <path d="M717.84,2102.50 L717.84,2070.00 L740.34,2070.00 L762.84,2070.00 L762.84,1932.50 L762.84,1795.00 L740.34,1795.00 L717.84,1795.00 L717.84,1762.50 L717.84,1730.00 L785.34,1730.00 L852.84,1730.00 L852.84,1901.50 L852.84,2073.00 L870.34,2073.00 L887.84,2073.00 L887.84,2104.00 L887.84,2135.00 L802.84,2135.00 L717.84,2135.00 L717.84,2102.50 Z M914.54,2061.25 C881.78,2020.69 854.87,1987.06 854.72,1986.52 C854.58,1985.98 875.56,1968.21 901.35,1947.02 L948.23,1908.50 L919.29,1908.00 L890.34,1907.50 L890.07,1880.25 L889.81,1853.00 L975.32,1853.00 L1060.84,1853.00 L1060.84,1881.50 L1060.84,1910.00 L1046.85,1910.00 L1032.85,1910.00 L991.33,1945.20 C968.49,1964.56 949.93,1980.73 950.07,1981.12 C950.22,1981.51 967.11,2001.67 987.61,2025.92 L1024.88,2070.00 L1044.36,2070.00 L1063.84,2070.00 L1063.84,2102.50 L1063.84,2135.00 L1018.97,2135.00 L974.10,2135.00 L914.54,2061.25 Z M1085.84,2102.50 L1085.84,2070.00 L1111.84,2070.00 L1137.84,2070.00 L1137.84,1994.50 L1137.84,1919.00 L1113.34,1919.00 L1088.84,1919.00 L1088.84,1886.00 L1088.84,1853.00 L1154.34,1853.00 L1219.84,1853.00 L1219.91,1888.25 C1219.96,1914.55 1220.25,1922.87 1221.06,1921.00 C1235.04,1888.84 1249.52,1872.24 1274.55,1859.64 C1288.28,1852.73 1308.68,1848.49 1324.84,1849.18 L1332.34,1849.50 L1332.60,1891.68 L1332.86,1933.85 L1327.10,1934.44 C1283.29,1938.90 1261.14,1947.81 1246.84,1966.69 C1233.04,1984.93 1228.85,2002.04 1228.10,2043.25 L1227.61,2070.00 L1255.72,2070.00 L1283.84,2070.00 L1283.84,2102.50 L1283.84,2135.00 L1184.84,2135.00 L1085.84,2135.00 L1085.84,2102.50 Z" fill="#ffffff"/>

    <!-- 'ops' in Matching Seafoam Mint on common baseline -->
    <path d="M1479.60,2141.42 C1464.64,2139.33 1460.39,2138.56 1452.16,2136.41 C1428.45,2130.22 1403.33,2115.56 1387.03,2098.37 C1372.19,2082.75 1358.84,2059.18 1353.11,2038.50 C1344.86,2008.75 1345.30,1974.13 1354.29,1946.05 C1370.60,1895.16 1413.15,1858.47 1467.60,1848.36 C1480.85,1845.90 1510.47,1845.85 1523.60,1848.26 C1537.52,1850.82 1549.62,1854.64 1561.07,1860.10 C1603.26,1880.20 1631.42,1916.44 1640.81,1962.73 C1643.35,1975.24 1643.35,2011.76 1640.81,2024.27 C1628.91,2082.90 1585.28,2126.59 1526.18,2139.05 C1516.94,2141.00 1487.33,2142.51 1479.60,2141.42 Z M1505.67,2070.92 C1535.68,2065.43 1552.83,2033.37 1550.81,1986.50 C1549.67,1959.96 1543.32,1942.11 1530.44,1929.22 C1520.63,1919.39 1504.13,1913.91 1489.20,1915.51 C1458.95,1918.74 1443.53,1939.43 1440.03,1981.48 C1435.10,2040.68 1463.00,2078.71 1505.67,2070.92 Z M1661.35,2229.50 L1661.35,2197.00 L1685.35,2197.00 L1709.35,2197.00 L1709.35,2058.00 L1709.35,1919.00 L1689.35,1919.00 L1669.35,1919.00 L1669.35,1886.00 L1669.35,1853.00 L1734.35,1853.00 L1799.35,1853.00 L1799.35,1870.10 L1799.35,1887.20 L1805.10,1881.93 C1834.10,1855.33 1865.59,1845.03 1901.35,1850.45 C1955.57,1858.67 1992.90,1903.69 2001.31,1971.00 C2002.93,1983.91 2002.66,2013.12 2000.82,2025.69 C1991.96,2086.02 1957.79,2128.00 1908.54,2139.07 C1872.33,2147.21 1835.19,2137.70 1806.18,2112.86 C1803.06,2110.19 1800.25,2108.00 1799.93,2108.00 C1799.61,2108.00 1799.35,2128.03 1799.35,2152.50 L1799.35,2197.00 L1827.35,2197.00 L1855.35,2197.00 L1855.35,2229.50 L1855.35,2262.00 L1758.35,2262.00 L1661.35,2262.00 L1661.35,2229.50 Z M1867.62,2069.53 C1893.54,2064.04 1908.53,2040.18 1910.04,2002.00 C1910.94,1979.48 1908.44,1964.86 1901.17,1950.00 C1891.84,1930.95 1876.84,1922.00 1854.25,1922.00 C1832.62,1922.00 1817.22,1931.80 1806.80,1952.21 C1794.78,1975.71 1794.77,2014.01 1806.76,2037.82 C1819.76,2063.63 1841.65,2075.03 1867.62,2069.53 Z M2143.13,2140.97 C2125.36,2138.94 2110.15,2133.62 2100.74,2126.13 L2095.49,2121.95 L2095.49,2128.48 L2095.49,2135.00 L2062.99,2135.00 L2030.49,2135.00 L2030.49,2086.49 L2030.49,2037.97 L2063.13,2038.24 L2095.76,2038.50 L2097.14,2043.90 C2101.26,2059.97 2113.87,2071.98 2132.99,2078.04 C2138.39,2079.75 2143.30,2080.37 2154.49,2080.74 C2188.74,2081.90 2203.54,2074.75 2203.62,2057.00 C2203.70,2040.95 2196.57,2035.86 2163.84,2028.60 C2155.12,2026.67 2142.37,2024.14 2135.49,2022.98 C2061.86,2010.60 2027.07,1987.23 2020.45,1945.74 C2018.93,1936.19 2019.69,1917.85 2021.96,1909.50 C2028.49,1885.47 2047.63,1866.48 2075.26,1856.62 C2105.07,1845.99 2148.00,1846.72 2183.14,1858.48 C2188.92,1860.42 2193.84,1862.00 2194.07,1862.00 C2194.30,1862.00 2194.49,1859.97 2194.49,1857.50 L2194.49,1853.00 L2226.99,1853.00 L2259.49,1853.00 L2259.49,1894.50 L2259.49,1936.00 L2227.24,1935.98 L2194.99,1935.97 L2192.63,1930.52 C2189.85,1924.10 2183.04,1917.33 2175.53,1913.52 C2165.95,1908.67 2156.52,1906.83 2138.49,1906.29 C2120.10,1905.74 2111.51,1907.04 2103.85,1911.53 C2094.01,1917.29 2091.73,1930.09 2099.26,1937.27 C2105.01,1942.75 2114.95,1945.59 2143.73,1949.99 C2192.26,1957.40 2225.22,1967.54 2245.49,1981.32 C2252.66,1986.19 2263.34,1996.98 2266.93,2002.98 C2280.90,2026.31 2282.16,2062.36 2269.94,2088.81 C2257.93,2114.80 2231.17,2133.16 2195.98,2139.54 C2185.39,2141.45 2154.67,2142.29 2143.13,2140.97 Z" fill="#5CE0B4"/>

    <!-- Subtitle 1: KUBERNETES RESOURCE OPERATIONS in Pure White -->
    <path d="M1204.00,2378.67 C1199.65,2377.54 1199.49,2377.36 1199.20,2373.33 L1198.89,2369.15 L1203.96,2371.08 C1212.44,2374.30 1219.00,2373.21 1219.00,2368.59 C1219.00,2366.03 1216.98,2364.91 1208.74,2362.91 C1202.30,2361.35 1199.00,2357.43 1199.00,2351.35 C1199.00,2342.69 1206.05,2338.88 1218.90,2340.61 L1225.50,2341.50 L1225.81,2345.73 L1226.11,2349.95 L1221.93,2348.48 C1214.48,2345.85 1208.00,2347.05 1208.00,2351.06 C1208.00,2353.23 1209.64,2354.11 1218.05,2356.42 C1225.38,2358.43 1228.33,2361.59 1228.33,2367.41 C1228.33,2377.95 1218.58,2382.46 1204.00,2378.67 Z M1407.00,2378.67 C1402.65,2377.54 1402.49,2377.36 1402.20,2373.33 L1401.89,2369.15 L1406.96,2371.08 C1415.44,2374.30 1422.00,2373.21 1422.00,2368.59 C1422.00,2366.03 1419.98,2364.91 1411.74,2362.91 C1405.30,2361.35 1402.00,2357.43 1402.00,2351.35 C1402.00,2342.69 1409.05,2338.88 1421.90,2340.61 L1428.50,2341.50 L1428.81,2345.73 L1429.11,2349.95 L1424.93,2348.48 C1417.48,2345.85 1411.00,2347.05 1411.00,2351.06 C1411.00,2353.23 1412.64,2354.11 1421.05,2356.42 C1428.38,2358.43 1431.33,2361.59 1431.33,2367.41 C1431.33,2377.95 1421.58,2382.46 1407.00,2378.67 Z M1467.50,2378.86 C1463.46,2377.37 1459.05,2373.20 1457.38,2369.28 C1455.61,2365.15 1455.60,2354.88 1457.36,2350.67 C1460.33,2343.58 1468.61,2339.37 1477.74,2340.31 C1488.42,2341.41 1494.29,2348.40 1494.29,2360.00 C1494.29,2367.97 1491.50,2373.91 1486.23,2377.17 C1482.28,2379.61 1472.04,2380.53 1467.50,2378.86 Z M1647.68,2378.61 C1639.89,2375.71 1636.00,2369.51 1636.00,2360.00 C1636.00,2346.56 1644.83,2338.89 1658.66,2340.31 C1666.27,2341.09 1668.00,2342.31 1668.00,2346.93 L1668.00,2350.78 L1664.29,2348.89 C1658.75,2346.07 1653.69,2346.41 1649.82,2349.87 C1646.94,2352.44 1646.57,2353.42 1646.19,2359.35 C1645.78,2365.82 1645.85,2366.05 1649.28,2369.48 C1653.44,2373.64 1658.29,2374.16 1664.29,2371.11 L1668.00,2369.22 L1668.00,2373.07 C1668.00,2376.01 1667.48,2377.21 1665.82,2378.09 C1662.40,2379.93 1652.01,2380.22 1647.68,2378.61 Z M1793.50,2378.86 C1789.46,2377.37 1785.05,2373.20 1783.38,2369.28 C1781.61,2365.15 1781.60,2354.88 1783.36,2350.67 C1786.33,2343.58 1794.61,2339.37 1803.74,2340.31 C1814.42,2341.41 1820.29,2348.40 1820.29,2360.00 C1820.29,2367.97 1817.50,2373.91 1812.23,2377.17 C1808.28,2379.61 1798.04,2380.53 1793.50,2378.86 Z M2172.50,2378.86 C2168.46,2377.37 2164.05,2373.20 2162.38,2369.28 C2160.61,2365.15 2160.60,2354.88 2162.36,2350.67 C2165.33,2343.58 2173.61,2339.37 2182.74,2340.31 C2193.42,2341.41 2199.29,2348.40 2199.29,2360.00 C2199.29,2367.97 2196.50,2373.91 2191.23,2377.17 C2187.28,2379.61 2177.04,2380.53 2172.50,2378.86 Z M2291.00,2378.67 C2286.65,2377.54 2286.49,2377.36 2286.20,2373.33 L2285.89,2369.15 L2290.96,2371.08 C2299.44,2374.30 2306.00,2373.21 2306.00,2368.59 C2306.00,2366.03 2303.98,2364.91 2295.74,2362.91 C2289.30,2361.35 2286.00,2357.43 2286.00,2351.35 C2286.00,2342.69 2293.05,2338.88 2305.90,2340.61 L2312.50,2341.50 L2312.81,2345.73 L2313.11,2349.95 L2308.93,2348.48 C2301.48,2345.85 2295.00,2347.05 2295.00,2351.06 C2295.00,2353.23 2296.64,2354.11 2305.05,2356.42 C2312.38,2358.43 2315.33,2361.59 2315.33,2367.41 C2315.33,2377.95 2305.58,2382.46 2291.00,2378.67 Z M753.21,2377.01 C746.95,2374.17 746.00,2371.14 746.00,2354.03 L746.00,2340.00 L751.00,2340.00 L756.00,2340.00 L756.00,2354.35 C756.00,2366.97 756.22,2368.89 757.83,2370.35 C759.74,2372.07 763.65,2372.51 765.69,2371.21 C768.10,2369.68 769.00,2364.57 769.00,2352.43 L769.00,2340.00 L773.50,2340.00 L778.00,2340.00 L778.00,2354.85 C778.00,2368.66 777.84,2369.94 775.72,2373.10 C771.80,2378.93 761.41,2380.73 753.21,2377.01 Z M1527.21,2377.01 C1520.95,2374.17 1520.00,2371.14 1520.00,2354.03 L1520.00,2340.00 L1525.00,2340.00 L1530.00,2340.00 L1530.00,2354.35 C1530.00,2366.97 1530.22,2368.89 1531.83,2370.35 C1533.74,2372.07 1537.65,2372.51 1539.69,2371.21 C1542.10,2369.68 1543.00,2364.57 1543.00,2352.43 L1543.00,2340.00 L1547.50,2340.00 L1552.00,2340.00 L1552.00,2354.85 C1552.00,2368.66 1551.84,2369.94 1549.72,2373.10 C1545.80,2378.93 1535.41,2380.73 1527.21,2377.01 Z M686.00,2359.00 L686.00,2340.00 L691.00,2340.00 L696.00,2340.00 L696.00,2346.72 L696.00,2353.45 L702.78,2346.72 C709.47,2340.08 709.61,2340.00 715.00,2340.00 L720.46,2340.00 L711.50,2349.00 L702.54,2358.00 L712.50,2368.00 L722.46,2378.00 L716.50,2378.00 L710.55,2378.00 L703.27,2370.78 L696.00,2363.55 L696.00,2370.78 L696.00,2378.00 L691.00,2378.00 L686.00,2378.00 L686.00,2359.00 Z M806.00,2358.91 L806.00,2339.83 L817.43,2340.16 C831.54,2340.58 834.32,2342.02 834.80,2349.15 C835.02,2352.53 834.63,2354.02 833.17,2355.35 C831.28,2357.06 831.30,2357.15 834.25,2360.09 C836.92,2362.76 837.19,2363.59 836.74,2367.59 C835.81,2375.90 831.60,2377.99 815.75,2377.99 L806.00,2378.00 L806.00,2358.91 Z M864.00,2359.00 L864.00,2340.00 L877.00,2340.00 L890.00,2340.00 L890.00,2343.50 L890.00,2347.00 L882.00,2347.00 L874.00,2347.00 L874.00,2351.00 L874.00,2355.00 L881.50,2355.00 L889.00,2355.00 L889.00,2358.50 L889.00,2362.00 L881.50,2362.00 L874.00,2362.00 L874.00,2366.50 L874.00,2371.00 L882.50,2371.00 L891.00,2371.00 L891.00,2374.50 L891.00,2378.00 L877.50,2378.00 L864.00,2378.00 L864.00,2359.00 Z M918.00,2359.00 L918.00,2340.00 L927.25,2340.01 C939.13,2340.01 943.55,2341.22 945.50,2345.00 C948.00,2349.84 947.45,2354.78 944.03,2357.97 L941.06,2360.75 L943.14,2362.62 C944.28,2363.66 946.75,2367.54 948.62,2371.25 L952.03,2378.00 L946.70,2378.00 L941.37,2378.00 L938.46,2371.92 C935.48,2365.68 933.69,2364.00 930.07,2364.00 C928.17,2364.00 928.00,2364.59 928.00,2371.00 L928.00,2378.00 L923.00,2378.00 L918.00,2378.00 L918.00,2359.00 Z M976.00,2359.00 L976.00,2340.00 L981.37,2340.00 L986.73,2340.00 L993.12,2352.15 L999.50,2364.30 L999.78,2352.15 L1000.06,2340.00 L1005.03,2340.00 L1010.00,2340.00 L1010.00,2359.05 L1010.00,2378.10 L1004.30,2377.80 L998.59,2377.50 L992.05,2365.14 L985.50,2352.77 L985.22,2365.39 L984.94,2378.00 L980.47,2378.00 L976.00,2378.00 L976.00,2359.00 Z M1038.00,2359.00 L1038.00,2340.00 L1051.00,2340.00 L1064.00,2340.00 L1064.00,2343.50 L1064.00,2347.00 L1056.00,2347.00 L1048.00,2347.00 L1048.00,2351.00 L1048.00,2355.00 L1055.50,2355.00 L1063.00,2355.00 L1063.00,2358.50 L1063.00,2362.00 L1055.50,2362.00 L1048.00,2362.00 L1048.00,2366.50 L1048.00,2371.00 L1056.50,2371.00 L1065.00,2371.00 L1065.00,2374.50 L1065.00,2378.00 L1051.50,2378.00 L1038.00,2378.00 L1038.00,2359.00 Z M1100.00,2362.50 L1100.00,2347.00 L1093.50,2347.00 L1087.00,2347.00 L1087.00,2343.50 L1087.00,2340.00 L1104.50,2340.00 L1122.00,2340.00 L1122.00,2343.50 L1122.00,2347.00 L1116.00,2347.00 L1110.00,2347.00 L1110.00,2362.50 L1110.00,2378.00 L1105.00,2378.00 L1100.00,2378.00 L1100.00,2362.50 Z M1146.00,2359.00 L1146.00,2340.00 L1159.00,2340.00 L1172.00,2340.00 L1172.00,2343.50 L1172.00,2347.00 L1164.00,2347.00 L1156.00,2347.00 L1156.00,2351.00 L1156.00,2355.00 L1163.50,2355.00 L1171.00,2355.00 L1171.00,2358.50 L1171.00,2362.00 L1163.50,2362.00 L1156.00,2362.00 L1156.00,2366.50 L1156.00,2371.00 L1164.50,2371.00 L1173.00,2371.00 L1173.00,2374.50 L1173.00,2378.00 L1159.50,2378.00 L1146.00,2378.00 L1146.00,2359.00 Z M1291.00,2359.00 L1291.00,2340.00 L1300.25,2340.01 C1312.13,2340.01 1316.55,2341.22 1318.50,2345.00 C1321.00,2349.84 1320.45,2354.78 1317.03,2357.97 L1314.06,2360.75 L1316.14,2362.62 C1317.28,2363.66 1319.75,2367.54 1321.62,2371.25 L1325.03,2378.00 L1319.70,2378.00 L1314.37,2378.00 L1311.46,2371.92 C1308.48,2365.68 1306.69,2364.00 1303.07,2364.00 C1301.17,2364.00 1301.00,2364.59 1301.00,2371.00 L1301.00,2378.00 L1296.00,2378.00 L1291.00,2378.00 L1291.00,2359.00 Z M1349.00,2359.00 L1349.00,2340.00 L1362.00,2340.00 L1375.00,2340.00 L1375.00,2343.50 L1375.00,2347.00 L1367.00,2347.00 L1359.00,2347.00 L1359.00,2351.00 L1359.00,2355.00 L1366.50,2355.00 L1374.00,2355.00 L1374.00,2358.50 L1374.00,2362.00 L1366.50,2362.00 L1359.00,2362.00 L1359.00,2366.50 L1359.00,2371.00 L1367.50,2371.00 L1376.00,2371.00 L1376.00,2374.50 L1376.00,2378.00 L1362.50,2378.00 L1349.00,2378.00 L1349.00,2359.00 Z M1580.00,2359.00 L1580.00,2340.00 L1589.25,2340.01 C1601.13,2340.01 1605.55,2341.22 1607.50,2345.00 C1610.00,2349.84 1609.45,2354.78 1606.03,2357.97 L1603.06,2360.75 L1605.14,2362.62 C1606.28,2363.66 1608.75,2367.54 1610.62,2371.25 L1614.03,2378.00 L1608.70,2378.00 L1603.37,2378.00 L1600.46,2371.92 C1597.48,2365.68 1595.69,2364.00 1592.07,2364.00 C1590.17,2364.00 1590.00,2364.59 1590.00,2371.00 L1590.00,2378.00 L1585.00,2378.00 L1580.00,2378.00 L1580.00,2359.00 Z M1694.00,2359.00 L1694.00,2340.00 L1707.00,2340.00 L1720.00,2340.00 L1720.00,2343.50 L1720.00,2347.00 L1712.00,2347.00 L1704.00,2347.00 L1704.00,2351.00 L1704.00,2355.00 L1711.50,2355.00 L1719.00,2355.00 L1719.00,2358.50 L1719.00,2362.00 L1711.50,2362.00 L1704.00,2362.00 L1704.00,2366.50 L1704.00,2371.00 L1712.50,2371.00 L1721.00,2371.00 L1721.00,2374.50 L1721.00,2378.00 L1707.50,2378.00 L1694.00,2378.00 L1694.00,2359.00 Z M1846.00,2359.00 L1846.00,2340.00 L1856.03,2340.00 C1871.54,2340.00 1876.50,2343.03 1876.50,2352.50 C1876.50,2360.78 1871.28,2365.00 1861.03,2365.00 L1856.00,2365.00 L1856.00,2371.50 L1856.00,2378.00 L1851.00,2378.00 L1846.00,2378.00 L1846.00,2359.00 Z M1902.00,2359.00 L1902.00,2340.00 L1915.00,2340.00 L1928.00,2340.00 L1928.00,2343.50 L1928.00,2347.00 L1920.00,2347.00 L1912.00,2347.00 L1912.00,2351.00 L1912.00,2355.00 L1919.50,2355.00 L1927.00,2355.00 L1927.00,2358.50 L1927.00,2362.00 L1919.50,2362.00 L1912.00,2362.00 L1912.00,2366.50 L1912.00,2371.00 L1920.50,2371.00 L1929.00,2371.00 L1929.00,2374.50 L1929.00,2378.00 L1915.50,2378.00 L1902.00,2378.00 L1902.00,2359.00 Z M1956.00,2359.00 L1956.00,2340.00 L1965.25,2340.01 C1977.13,2340.01 1981.55,2341.22 1983.50,2345.00 C1986.00,2349.84 1985.45,2354.78 1982.03,2357.97 L1979.06,2360.75 L1981.14,2362.62 C1982.28,2363.66 1984.75,2367.54 1986.62,2371.25 L1990.03,2378.00 L1984.70,2378.00 L1979.37,2378.00 L1976.46,2371.92 C1973.48,2365.68 1971.69,2364.00 1968.07,2364.00 C1966.17,2364.00 1966.00,2364.59 1966.00,2371.00 L1966.00,2378.00 L1961.00,2378.00 L1956.00,2378.00 L1956.00,2359.00 Z M2016.28,2359.00 L2023.34,2339.91 L2029.28,2340.21 L2035.23,2340.50 L2038.51,2349.50 C2040.32,2354.45 2043.39,2362.89 2045.35,2368.25 L2048.91,2378.00 L2044.03,2378.00 C2039.34,2378.00 2039.11,2377.86 2038.00,2374.50 L2036.84,2371.00 L2029.07,2371.00 L2021.29,2371.00 L2020.36,2374.25 C2019.49,2377.31 2019.14,2377.52 2014.33,2377.80 L2009.23,2378.10 L2016.28,2359.00 Z M2080.00,2362.50 L2080.00,2347.00 L2073.50,2347.00 L2067.00,2347.00 L2067.00,2343.50 L2067.00,2340.00 L2084.50,2340.00 L2102.00,2340.00 L2102.00,2343.50 L2102.00,2347.00 L2096.00,2347.00 L2090.00,2347.00 L2090.00,2362.50 L2090.00,2378.00 L2085.00,2378.00 L2080.00,2378.00 L2080.00,2362.50 Z M2126.00,2359.00 L2126.00,2340.00 L2131.00,2340.00 L2136.00,2340.00 L2136.00,2359.00 L2136.00,2378.00 L2131.00,2378.00 L2126.00,2378.00 L2126.00,2359.00 Z M2225.00,2359.00 L2225.00,2340.00 L2230.37,2340.00 L2235.73,2340.00 L2242.12,2352.15 L2248.50,2364.30 L2248.78,2352.15 L2249.06,2340.00 L2254.03,2340.00 L2259.00,2340.00 L2259.00,2359.05 L2259.00,2378.10 L2253.30,2377.80 L2247.59,2377.50 L2241.05,2365.14 L2234.50,2352.77 L2234.22,2365.39 L2233.94,2378.00 L2229.47,2378.00 L2225.00,2378.00 L2225.00,2359.00 Z M1481.08,2370.08 C1483.76,2367.39 1484.00,2366.57 1484.00,2360.00 C1484.00,2353.43 1483.76,2352.61 1481.08,2349.92 C1474.18,2343.03 1466.00,2348.50 1466.00,2360.00 C1466.00,2371.53 1474.17,2376.99 1481.08,2370.08 Z M1807.08,2370.08 C1809.76,2367.39 1810.00,2366.57 1810.00,2360.00 C1810.00,2353.43 1809.76,2352.61 1807.08,2349.92 C1800.18,2343.03 1792.00,2348.50 1792.00,2360.00 C1792.00,2371.53 1800.17,2376.99 1807.08,2370.08 Z M2186.08,2370.08 C2188.76,2367.39 2189.00,2366.57 2189.00,2360.00 C2189.00,2353.43 2188.76,2352.61 2186.08,2349.92 C2179.18,2343.03 2171.00,2348.50 2171.00,2360.00 C2171.00,2371.53 2179.17,2376.99 2186.08,2370.08 Z M825.07,2369.96 C826.30,2369.30 827.00,2367.87 827.00,2366.00 C827.00,2362.53 824.72,2361.00 819.57,2361.00 L816.00,2361.00 L816.00,2366.00 L816.00,2371.00 L819.57,2371.00 C821.53,2371.00 824.00,2370.53 825.07,2369.96 Z M2033.42,2361.75 C2030.18,2351.52 2029.21,2349.53 2028.45,2351.50 C2028.03,2352.60 2026.85,2355.65 2025.84,2358.29 C2024.83,2360.92 2024.00,2363.28 2024.00,2363.54 C2024.00,2363.79 2026.28,2364.00 2029.07,2364.00 C2033.87,2364.00 2034.10,2363.88 2033.42,2361.75 Z M1865.17,2356.35 C1869.31,2352.60 1866.12,2347.00 1859.85,2347.00 L1856.00,2347.00 L1856.00,2352.50 L1856.00,2358.00 L1859.67,2358.00 C1861.69,2358.00 1864.17,2357.26 1865.17,2356.35 Z M935.80,2355.80 C936.46,2355.14 937.00,2353.43 937.00,2352.00 C937.00,2348.51 935.27,2347.00 931.30,2347.00 C928.01,2347.00 928.00,2347.01 928.00,2352.00 C928.00,2356.99 928.01,2357.00 931.30,2357.00 C933.12,2357.00 935.14,2356.46 935.80,2355.80 Z M1308.80,2355.80 C1309.46,2355.14 1310.00,2353.43 1310.00,2352.00 C1310.00,2348.51 1308.27,2347.00 1304.30,2347.00 C1301.01,2347.00 1301.00,2347.01 1301.00,2352.00 C1301.00,2356.99 1301.01,2357.00 1304.30,2357.00 C1306.12,2357.00 1308.14,2356.46 1308.80,2355.80 Z M1597.80,2355.80 C1598.46,2355.14 1599.00,2353.43 1599.00,2352.00 C1599.00,2348.51 1597.27,2347.00 1593.30,2347.00 C1590.01,2347.00 1590.00,2347.01 1590.00,2352.00 C1590.00,2356.99 1590.01,2357.00 1593.30,2357.00 C1595.12,2357.00 1597.14,2356.46 1597.80,2355.80 Z M1973.80,2355.80 C1974.46,2355.14 1975.00,2353.43 1975.00,2352.00 C1975.00,2348.51 1973.27,2347.00 1969.30,2347.00 C1966.01,2347.00 1966.00,2347.01 1966.00,2352.00 C1966.00,2356.99 1966.01,2357.00 1969.30,2357.00 C1971.12,2357.00 1973.14,2356.46 1973.80,2355.80 Z M825.07,2352.42 C827.17,2349.89 824.97,2347.55 820.15,2347.19 C816.00,2346.89 816.00,2346.89 816.00,2350.44 C816.00,2353.91 816.10,2354.00 819.88,2354.00 C822.20,2354.00 824.28,2353.36 825.07,2352.42 Z" fill="#ffffff"/>

    <!-- Subtitle 2: GITOPS in Sage, & in White, INFRASTRUCTURE in Pistachio -->
    <g id="subtitle-2" transform="translate(-21.5, 0)">
      <path d="M882.68,2528.55 C874.94,2525.79 871.00,2519.53 871.00,2510.00 C871.00,2494.68 883.35,2486.79 900.56,2491.12 C904.88,2492.21 905.00,2492.34 905.00,2496.23 C905.00,2499.64 904.75,2500.11 903.25,2499.47 C899.11,2497.72 893.02,2496.77 889.80,2497.38 C884.20,2498.43 881.66,2501.98 881.19,2509.40 C880.81,2515.28 880.99,2515.96 883.77,2519.06 C886.43,2522.04 887.32,2522.41 892.12,2522.45 L897.50,2522.50 L897.81,2518.75 C898.11,2515.17 897.99,2515.00 895.06,2515.00 C892.23,2515.00 892.00,2514.74 892.00,2511.50 L892.00,2508.00 L899.50,2508.00 L907.00,2508.00 L907.00,2517.37 L907.00,2526.74 L901.18,2528.37 C894.20,2530.33 887.85,2530.39 882.68,2528.55 Z M1046.50,2528.86 C1042.46,2527.37 1038.05,2523.20 1036.38,2519.28 C1034.61,2515.15 1034.60,2504.88 1036.36,2500.67 C1039.33,2493.58 1047.61,2489.37 1056.74,2490.31 C1067.42,2491.41 1073.29,2498.40 1073.29,2510.00 C1073.29,2517.97 1070.50,2523.91 1065.23,2527.17 C1061.28,2529.61 1051.04,2530.53 1046.50,2528.86 Z M1167.00,2528.67 C1162.65,2527.54 1162.49,2527.36 1162.20,2523.33 L1161.89,2519.15 L1166.96,2521.08 C1175.44,2524.30 1182.00,2523.21 1182.00,2518.59 C1182.00,2516.03 1179.98,2514.91 1171.74,2512.91 C1165.30,2511.35 1162.00,2507.43 1162.00,2501.35 C1162.00,2492.69 1169.05,2488.88 1181.90,2490.61 L1188.50,2491.50 L1188.81,2495.73 L1189.11,2499.95 L1184.93,2498.48 C1177.48,2495.85 1171.00,2497.05 1171.00,2501.06 C1171.00,2503.23 1172.64,2504.11 1181.05,2506.42 C1188.38,2508.43 1191.33,2511.59 1191.33,2517.41 C1191.33,2527.95 1181.58,2532.46 1167.00,2528.67 Z M938.00,2509.00 L938.00,2490.00 L943.00,2490.00 L948.00,2490.00 L948.00,2509.00 L948.00,2528.00 L943.00,2528.00 L938.00,2528.00 L938.00,2509.00 Z M987.00,2512.50 L987.00,2497.00 L980.50,2497.00 L974.00,2497.00 L974.00,2493.50 L974.00,2490.00 L991.50,2490.00 L1009.00,2490.00 L1009.00,2493.50 L1009.00,2497.00 L1003.00,2497.00 L997.00,2497.00 L997.00,2512.50 L997.00,2528.00 L992.00,2528.00 L987.00,2528.00 L987.00,2512.50 Z M1103.00,2509.00 L1103.00,2490.00 L1113.03,2490.00 C1128.54,2490.00 1133.50,2493.03 1133.50,2502.50 C1133.50,2510.78 1128.28,2515.00 1118.03,2515.00 L1113.00,2515.00 L1113.00,2521.50 L1113.00,2528.00 L1108.00,2528.00 L1103.00,2528.00 L1103.00,2509.00 Z M1060.08,2520.08 C1062.76,2517.39 1063.00,2516.57 1063.00,2510.00 C1063.00,2503.43 1062.76,2502.61 1060.08,2499.92 C1053.18,2493.03 1045.00,2498.50 1045.00,2510.00 C1045.00,2521.53 1053.17,2526.99 1060.08,2520.08 Z M1122.17,2506.35 C1126.31,2502.60 1123.12,2497.00 1116.85,2497.00 L1113.00,2497.00 L1113.00,2502.50 L1113.00,2508.00 L1116.67,2508.00 C1118.69,2508.00 1121.17,2507.26 1122.17,2506.35 Z" fill="#336952"/>
      <path d="M1267.42,2528.17 C1263.21,2526.19 1260.00,2521.36 1260.00,2517.00 C1260.00,2513.76 1262.97,2508.06 1265.55,2506.38 C1267.49,2505.10 1267.65,2504.54 1266.74,2502.13 C1263.55,2493.67 1272.31,2488.11 1284.88,2490.62 C1287.66,2491.18 1288.00,2491.63 1288.00,2494.73 C1288.00,2497.51 1287.68,2498.09 1286.41,2497.60 C1280.33,2495.27 1275.00,2495.85 1275.00,2498.85 C1275.00,2499.84 1277.81,2503.88 1281.25,2507.83 C1286.81,2514.21 1287.64,2514.81 1288.75,2513.31 C1289.44,2512.38 1290.00,2510.35 1290.00,2508.81 C1290.00,2506.20 1290.28,2506.00 1294.00,2506.00 C1297.73,2506.00 1298.00,2506.19 1298.00,2508.85 C1298.00,2510.42 1296.85,2513.86 1295.45,2516.50 L1292.89,2521.31 L1296.65,2525.15 L1300.41,2529.00 L1294.83,2529.00 C1291.15,2529.00 1288.83,2528.50 1288.03,2527.54 C1286.97,2526.26 1286.53,2526.26 1284.49,2527.60 C1280.66,2530.11 1272.16,2530.39 1267.42,2528.17 Z M1280.09,2521.95 C1281.92,2520.97 1281.74,2520.56 1277.29,2515.51 C1272.86,2510.49 1272.41,2510.23 1270.76,2511.71 C1268.12,2514.11 1268.53,2518.48 1271.63,2520.93 C1274.55,2523.22 1277.13,2523.54 1280.09,2521.95 Z" fill="#ffffff"/>
      <path d="M1662.00,2528.67 C1657.65,2527.54 1657.49,2527.36 1657.20,2523.33 L1656.89,2519.15 L1661.96,2521.08 C1670.44,2524.30 1677.00,2523.21 1677.00,2518.59 C1677.00,2516.03 1674.98,2514.91 1666.74,2512.91 C1660.30,2511.35 1657.00,2507.43 1657.00,2501.35 C1657.00,2492.69 1664.05,2488.88 1676.90,2490.61 L1683.50,2491.50 L1683.81,2495.73 L1684.11,2499.95 L1679.93,2498.48 C1672.48,2495.85 1666.00,2497.05 1666.00,2501.06 C1666.00,2503.23 1667.64,2504.11 1676.05,2506.42 C1683.38,2508.43 1686.33,2511.59 1686.33,2517.41 C1686.33,2527.95 1676.58,2532.46 1662.00,2528.67 Z M1910.68,2528.61 C1902.89,2525.71 1899.00,2519.51 1899.00,2510.00 C1899.00,2496.56 1907.83,2488.89 1921.66,2490.31 C1929.27,2491.09 1931.00,2492.31 1931.00,2496.93 L1931.00,2500.78 L1927.29,2498.89 C1921.75,2496.07 1916.69,2496.41 1912.82,2499.87 C1909.94,2502.44 1909.57,2503.42 1909.19,2509.35 C1908.78,2515.82 1908.85,2516.05 1912.28,2519.48 C1916.44,2523.64 1921.29,2524.16 1927.29,2521.11 L1931.00,2519.22 L1931.00,2523.07 C1931.00,2526.01 1930.48,2527.21 1928.82,2528.09 C1925.40,2529.93 1915.01,2530.22 1910.68,2528.61 Z M1844.21,2527.01 C1837.95,2524.17 1837.00,2521.14 1837.00,2504.03 L1837.00,2490.00 L1842.00,2490.00 L1847.00,2490.00 L1847.00,2504.35 C1847.00,2516.97 1847.22,2518.89 1848.83,2520.35 C1850.74,2522.07 1854.65,2522.51 1856.69,2521.21 C1859.10,2519.68 1860.00,2514.57 1860.00,2502.43 L1860.00,2490.00 L1864.50,2490.00 L1869.00,2490.00 L1869.00,2504.85 C1869.00,2518.66 1868.84,2519.94 1866.72,2523.10 C1862.80,2528.93 1852.41,2530.73 1844.21,2527.01 Z M2026.21,2527.01 C2019.95,2524.17 2019.00,2521.14 2019.00,2504.03 L2019.00,2490.00 L2024.00,2490.00 L2029.00,2490.00 L2029.00,2504.35 C2029.00,2516.97 2029.22,2518.89 2030.83,2520.35 C2032.74,2522.07 2036.65,2522.51 2038.69,2521.21 C2041.10,2519.68 2042.00,2514.57 2042.00,2502.43 L2042.00,2490.00 L2046.50,2490.00 L2051.00,2490.00 L2051.00,2504.85 C2051.00,2518.66 2050.84,2519.94 2048.72,2523.10 C2044.80,2528.93 2034.41,2530.73 2026.21,2527.01 Z M1369.00,2509.00 L1369.00,2490.00 L1374.00,2490.00 L1379.00,2490.00 L1379.00,2509.00 L1379.00,2528.00 L1374.00,2528.00 L1369.00,2528.00 L1369.00,2509.00 Z M1410.00,2509.00 L1410.00,2490.00 L1415.37,2490.00 L1420.73,2490.00 L1427.12,2502.15 L1433.50,2514.30 L1433.78,2502.15 L1434.06,2490.00 L1439.03,2490.00 L1444.00,2490.00 L1444.00,2509.05 L1444.00,2528.10 L1438.30,2527.80 L1432.59,2527.50 L1426.05,2515.14 L1419.50,2502.77 L1419.22,2515.39 L1418.94,2528.00 L1414.47,2528.00 L1410.00,2528.00 L1410.00,2509.00 Z M1476.00,2509.00 L1476.00,2490.00 L1489.00,2490.00 L1502.00,2490.00 L1502.00,2493.50 L1502.00,2497.00 L1494.00,2497.00 L1486.00,2497.00 L1486.00,2501.00 L1486.00,2505.00 L1493.50,2505.00 L1501.00,2505.00 L1501.00,2508.50 L1501.00,2512.00 L1493.50,2512.00 L1486.00,2512.00 L1486.00,2520.00 L1486.00,2528.00 L1481.00,2528.00 L1476.00,2528.00 L1476.00,2509.00 Z M1534.00,2509.00 L1534.00,2490.00 L1543.25,2490.01 C1555.13,2490.01 1559.55,2491.22 1561.50,2495.00 C1564.00,2499.84 1563.45,2504.78 1560.03,2507.97 L1557.06,2510.75 L1559.14,2512.62 C1560.28,2513.66 1562.75,2517.54 1564.62,2521.25 L1568.03,2528.00 L1562.70,2528.00 L1557.37,2528.00 L1554.46,2521.92 C1551.48,2515.68 1549.69,2514.00 1546.07,2514.00 C1544.17,2514.00 1544.00,2514.59 1544.00,2521.00 L1544.00,2528.00 L1539.00,2528.00 L1534.00,2528.00 L1534.00,2509.00 Z M1598.28,2509.00 L1605.34,2489.91 L1611.28,2490.21 L1617.23,2490.50 L1620.51,2499.50 C1622.32,2504.45 1625.39,2512.89 1627.35,2518.25 L1630.91,2528.00 L1626.03,2528.00 C1621.34,2528.00 1621.11,2527.86 1620.00,2524.50 L1618.84,2521.00 L1611.07,2521.00 L1603.29,2521.00 L1602.36,2524.25 C1601.49,2527.31 1601.14,2527.52 1596.33,2527.80 L1591.23,2528.10 L1598.28,2509.00 Z M1725.00,2512.50 L1725.00,2497.00 L1718.50,2497.00 L1712.00,2497.00 L1712.00,2493.50 L1712.00,2490.00 L1729.50,2490.00 L1747.00,2490.00 L1747.00,2493.50 L1747.00,2497.00 L1741.00,2497.00 L1735.00,2497.00 L1735.00,2512.50 L1735.00,2528.00 L1730.00,2528.00 L1725.00,2528.00 L1725.00,2512.50 Z M1775.00,2509.00 L1775.00,2490.00 L1784.25,2490.01 C1796.13,2490.01 1800.55,2491.22 1802.50,2495.00 C1805.00,2499.84 1804.45,2504.78 1801.03,2507.97 L1798.06,2510.75 L1800.14,2512.62 C1801.28,2513.66 1803.75,2517.54 1805.62,2521.25 L1809.03,2528.00 L1803.70,2528.00 L1798.37,2528.00 L1795.46,2521.92 C1792.48,2515.68 1790.69,2514.00 1787.07,2514.00 C1785.17,2514.00 1785.00,2514.59 1785.00,2521.00 L1785.00,2528.00 L1780.00,2528.00 L1775.00,2528.00 L1775.00,2509.00 Z M1969.00,2512.50 L1969.00,2497.00 L1962.50,2497.00 L1956.00,2497.00 L1956.00,2493.50 L1956.00,2490.00 L1973.50,2490.00 L1991.00,2490.00 L1991.00,2493.50 L1991.00,2497.00 L1985.00,2497.00 L1979.00,2497.00 L1979.00,2512.50 L1979.00,2528.00 L1974.00,2528.00 L1969.00,2528.00 L1969.00,2512.50 Z M2083.00,2509.00 L2083.00,2490.00 L2092.25,2490.01 C2104.13,2490.01 2108.55,2491.22 2110.50,2495.00 C2113.00,2499.84 2112.45,2504.78 2109.03,2507.97 L2106.06,2510.75 L2108.14,2512.62 C2109.28,2513.66 2111.75,2517.54 2113.62,2521.25 L2117.03,2528.00 L2111.70,2528.00 L2106.37,2528.00 L2103.46,2521.92 C2100.48,2515.68 2098.69,2514.00 2095.07,2514.00 C2093.17,2514.00 2093.00,2514.59 2093.00,2521.00 L2093.00,2528.00 L2088.00,2528.00 L2083.00,2528.00 L2083.00,2509.00 Z M2145.00,2509.00 L2145.00,2490.00 L2158.00,2490.00 L2171.00,2490.00 L2171.00,2493.50 L2171.00,2497.00 L2163.00,2497.00 L2155.00,2497.00 L2155.00,2501.00 L2155.00,2505.00 L2162.50,2505.00 L2170.00,2505.00 L2170.00,2508.50 L2170.00,2512.00 L2162.50,2512.00 L2155.00,2512.00 L2155.00,2516.50 L2155.00,2521.00 L2163.50,2521.00 L2172.00,2521.00 L2172.00,2524.50 L2172.00,2528.00 L2158.50,2528.00 L2145.00,2528.00 L2145.00,2509.00 Z M1615.42,2511.75 C1612.18,2501.52 1611.21,2499.53 1610.45,2501.50 C1610.03,2502.60 1608.85,2505.65 1607.84,2508.29 C1606.83,2510.92 1606.00,2513.28 1606.00,2513.54 C1606.00,2513.79 1608.28,2514.00 1611.07,2514.00 C1615.87,2514.00 1616.10,2513.88 1615.42,2511.75 Z M1551.80,2505.80 C1552.46,2505.14 1553.00,2503.43 1553.00,2502.00 C1553.00,2498.51 1551.27,2497.00 1547.30,2497.00 C1544.01,2497.00 1544.00,2497.01 1544.00,2502.00 C1544.00,2506.99 1544.01,2507.00 1547.30,2507.00 C1549.12,2507.00 1551.14,2506.46 1551.80,2505.80 Z M1792.80,2505.80 C1793.46,2505.14 1794.00,2503.43 1794.00,2502.00 C1794.00,2498.51 1792.27,2497.00 1788.30,2497.00 C1785.01,2497.00 1785.00,2497.01 1785.00,2502.00 C1785.00,2506.99 1785.01,2507.00 1788.30,2507.00 C1790.12,2507.00 1792.14,2506.46 1792.80,2505.80 Z M2100.80,2505.80 C2101.46,2505.14 2102.00,2503.43 2102.00,2502.00 C2102.00,2498.51 2100.27,2497.00 2096.30,2497.00 C2093.01,2497.00 2093.00,2497.01 2093.00,2502.00 C2093.00,2506.99 2093.01,2507.00 2096.30,2507.00 C2098.11,2507.00 2100.14,2506.46 2100.80,2505.80 Z" fill="#B0F6C0"/>
    </g>
  </g>
</svg>